# xmcd
# Track frame offsets:
# 150
# 13095
# 27877
# 40360
# 53855
# 66675
# 78490
# 91832
# 104925
# 113077
# 124790
# 138662
# 149342
# 160412
# 173097
# 187005
# 198277
# 211010
# 225675
# 237550
# 249510
# 261502
# 273925
# 286357
# 298347
#
# Disc length: 4172 seconds
# Revision: 0
# Processed by: cddbd v1.4PL0 Copyright (c) Steve Scherf et al.
# Submitted via: VisiTrax 2.9.5.180 - For more info visit www.synapsa.com
#
DISCID=8a104a19
DTITLE=Charlie Rich - Charlie Rich sings the songs of Hank Williams
DYEAR=1994
DGENRE=
TTITLE0=My heart would know
TTITLE1=Take these chains from my heart
TTITLE2=Half as much
TTITLE3=You win again
TTITLE4=I can't help it
TTITLE5=Hey good lookin'
TTITLE6=Your cgeatin' heart
TTITLE7=Cold cold heart
TTITLE8=Nobody's lonesome for me
TTITLE9=I'm so lonely I could cry
TTITLE10=Wedding bells
TTITLE11=They'll never take her love from me
TTITLE12=Love is after me
TTITLE13=Pass on by
TTITLE14=Hurry up freigh train
TTITLE15=Only me
TTITLE16=When something is wrong with my baby
TTITLE17=Don't tear me down
TTITLE18=Can't get right
TTITLE19=I'll shed no tears
TTITLE20=To fool a fool
TTITLE21=Who will tne next ffol be
TTITLE22=Big time operator
TTITLE23=Renee
TTITLE24=Motels, hotels
EXTD=
EXTT0=
EXTT1=
EXTT2=
EXTT3=
EXTT4=
EXTT5=
EXTT6=
EXTT7=
EXTT8=
EXTT9=
EXTT10=
EXTT11=
EXTT12=
EXTT13=
EXTT14=
EXTT15=
EXTT16=
EXTT17=
EXTT18=
EXTT19=
EXTT20=
EXTT21=
EXTT22=
EXTT23=
EXTT24=
PLAYORDER=
